<svg width="362" height="175" viewBox="0 0 362 175" fill="none" xmlns="http://www.w3.org/2000/svg">
<path d="M51.072 63.952C72.064 63.952 80.384 80.08 80.384 97.872C80.384 116.176 72.064 132.048 51.072 132.048C40.192 132.048 32.896 128.08 28.544 121.168V130H6.528V40.4H28.544V74.832C32.896 68.048 40.192 63.952 51.072 63.952ZM28.544 98C28.544 109.392 32.384 114.896 43.648 114.896C54.528 114.896 58.368 109.904 58.368 98C58.368 86.096 54.528 81.104 43.648 81.104C32.384 81.104 28.544 86.608 28.544 98ZM193.257 130C173.673 130 167.529 121.296 167.529 104.784V82.512H156.265V72.272L169.321 66.512L178.409 50.512H189.545V66H206.953V82.512H189.545V112.592H204.905V130H193.257ZM247.519 132.048C221.535 132.048 212.191 115.408 212.191 97.872C212.191 79.312 222.943 63.952 247.519 63.952C273.631 63.952 281.951 80.464 281.951 98.256C281.951 100.304 281.823 102.224 281.567 103.632H233.567C234.847 113.872 239.967 117.328 248.031 117.328C254.559 117.328 258.527 114.512 260.319 110.672H281.695C279.647 121.68 270.815 132.048 247.519 132.048ZM233.823 90.832H261.087C260.319 82.768 256.351 78.416 247.903 78.416C239.839 78.416 235.231 81.616 233.823 90.832Z" fill="#031221"/>
<path d="M85.096 155.6V138.192H112.744L115.944 128.208H101.992L81.256 66H103.656L116.2 103.12L119.784 114.896L123.112 103.12L134.888 66H155.752L135.4 130C130.28 146.64 123.624 155.6 103.656 155.6H85.096Z" fill="#5271FF"/>
<path d="M295.505 89.424H315.217V69.072H330.833V89.424H350.545V104.016H330.833V124.24H315.217V104.016H295.505V89.424Z" fill="#FCD34D"/>
</svg>
